<?xml version="1.0" encoding="utf-8"?>
<!-- Generator: Adobe Illustrator 24.0.3, SVG Export Plug-In . SVG Version: 6.00 Build 0)  -->
<svg version="1.1" id="Calque_1" xmlns="http://www.w3.org/2000/svg" xmlns:xlink="http://www.w3.org/1999/xlink" x="0px" y="0px"
	 viewBox="0 0 361.3 42.7" style="enable-background:new 0 0 361.3 42.7;" xml:space="preserve">
<style type="text/css">
	.st0{enable-background:new    ;}
	.st1{fill:#329626;}
	.st2{fill:#D8006B;}
	.st3{fill:#FFFFFF;}
	.st4{fill:url(#Tracé_76_1_);}
	.st5{fill:url(#Tracé_77_1_);}
	.st6{fill:url(#Tracé_78_1_);}
	.st7{fill:url(#Tracé_79_1_);}
	.st8{fill:url(#Tracé_80_1_);}
	.st9{fill:url(#Tracé_81_1_);}
	.st10{fill:url(#Tracé_82_1_);}
	.st11{fill:url(#Tracé_83_1_);}
</style>
<g id="Groupe_41" transform="translate(-27.679 -89.621)">
	<g class="st0">
		<path class="st1" d="M183.8,109v-7.7h2.9c0.6,0,1.2,0.2,1.7,0.7c0.5,0.5,0.8,1.1,0.8,1.8c0,0.7-0.3,1.3-0.8,1.8
			c-0.5,0.5-1.1,0.7-1.7,0.7h-1.6v2.7H183.8z M185.2,105.1h1.5c0.6,0,1.2-0.5,1.2-1.2c0-0.8-0.6-1.3-1.2-1.3h-1.5V105.1z"/>
		<path class="st1" d="M190.5,109v-7.7h1.4v6.4h3v1.2H190.5z"/>
		<path class="st1" d="M195.4,109l3.8-8l3.8,8h-1.5l-0.7-1.5h-3.3l-0.7,1.5H195.4z M198,106.3h2.3l-1.1-2.5L198,106.3z"/>
		<path class="st1" d="M204.5,109v-6.4h-2.1v-1.2h5.5v1.2h-2.1v6.4H204.5z"/>
		<path class="st1" d="M209,109v-7.7h4.9v1.2h-3.5v1.8h3.3v1.2h-3.3v2.1h3.6v1.2H209z"/>
		<path class="st1" d="M214.8,106.6v-1.2h3.7v1.2H214.8z"/>
		<path class="st1" d="M219.7,109v-7.7h4.6v1.2h-3.3v1.9h3v1.2h-3v3.3H219.7z"/>
		<path class="st1" d="M226.4,108c-0.8-0.8-1.2-1.7-1.2-2.8s0.4-2.1,1.2-2.8c0.8-0.8,1.7-1.2,2.9-1.2c1.1,0,2.1,0.4,2.9,1.2
			c0.8,0.8,1.2,1.7,1.2,2.8s-0.4,2.1-1.2,2.8s-1.7,1.1-2.9,1.1C228.1,109.2,227.1,108.8,226.4,108z M227.3,107.1
			c0.5,0.5,1.2,0.8,1.9,0.8c0.8,0,1.4-0.3,1.9-0.8c0.5-0.5,0.8-1.2,0.8-1.9c0-0.8-0.3-1.4-0.8-1.9c-0.5-0.5-1.2-0.8-1.9-0.8
			c-0.8,0-1.4,0.3-1.9,0.8c-0.5,0.5-0.8,1.2-0.8,1.9C226.5,106,226.8,106.6,227.3,107.1z"/>
		<path class="st1" d="M234.6,109v-7.7h3c0.7,0,1.3,0.2,1.8,0.7c0.5,0.5,0.7,1,0.7,1.7c0,1-0.6,1.8-1.4,2.2l1.9,3.1h-1.6l-1.6-2.7h0
			h-1.3v2.7H234.6z M235.9,105h1.5c0.7,0,1.3-0.5,1.3-1.3c0-0.7-0.5-1.2-1.2-1.2h-1.6V105z"/>
		<path class="st1" d="M241.6,109v-7.9l3.9,4.7l3.9-4.7v7.9H248v-4.3l-2.6,3.1l-2.6-3.1v4.3H241.6z"/>
		<path class="st1" d="M251.1,109v-7.7h4.9v1.2h-3.5v1.8h3.3v1.2h-3.3v2.1h3.6v1.2H251.1z"/>
		<path class="st1" d="M267.6,102v1.5c-0.7-0.7-1.5-1-2.4-1c-0.8,0-1.4,0.3-1.9,0.8c-0.5,0.5-0.8,1.2-0.8,1.9c0,0.8,0.3,1.4,0.8,1.9
			c0.5,0.5,1.2,0.8,1.9,0.8c0.9,0,1.7-0.3,2.4-1v1.5c-0.6,0.5-1.4,0.8-2.4,0.8c-1.1,0-2.1-0.4-2.9-1.1c-0.8-0.8-1.2-1.7-1.2-2.8
			c0-1.1,0.4-2.1,1.2-2.8c0.8-0.8,1.8-1.1,2.9-1.1C266.1,101.2,266.9,101.5,267.6,102z"/>
		<path class="st1" d="M269.8,108c-0.8-0.8-1.2-1.7-1.2-2.8s0.4-2.1,1.2-2.8c0.8-0.8,1.7-1.2,2.9-1.2s2.1,0.4,2.9,1.2
			c0.8,0.8,1.2,1.7,1.2,2.8s-0.4,2.1-1.2,2.8s-1.8,1.1-2.9,1.1S270.6,108.8,269.8,108z M270.7,107.1c0.5,0.5,1.2,0.8,1.9,0.8
			s1.4-0.3,1.9-0.8c0.5-0.5,0.8-1.2,0.8-1.9c0-0.8-0.3-1.4-0.8-1.9c-0.5-0.5-1.2-0.8-1.9-0.8s-1.4,0.3-1.9,0.8
			c-0.5,0.5-0.8,1.2-0.8,1.9C270,106,270.2,106.6,270.7,107.1z"/>
		<path class="st1" d="M278,109v-7.7h1.4v6.4h3v1.2H278z"/>
		<path class="st1" d="M283.6,109v-7.7h1.4v6.4h3v1.2H283.6z"/>
		<path class="st1" d="M288.5,109l3.8-8l3.8,8h-1.5l-0.7-1.5h-3.3l-0.7,1.5H288.5z M291.1,106.3h2.3l-1.1-2.5L291.1,106.3z"/>
		<path class="st1" d="M297.1,109v-7.7h2.8c0.6,0,1.1,0.2,1.5,0.6c0.4,0.4,0.6,0.8,0.6,1.4c0,0.7-0.4,1.3-1,1.5
			c1,0.2,1.5,0.9,1.5,1.9c0,0.6-0.2,1.2-0.7,1.6c-0.4,0.4-1,0.6-1.7,0.6H297.1z M298.5,104.4h1.2c0.6,0,1-0.4,1-0.9
			c0-0.5-0.4-0.9-1-0.9h-1.2V104.4z M298.5,107.8h1.5c0.7,0,1.2-0.5,1.2-1.1c0-0.6-0.5-1.1-1.2-1.1h-1.5V107.8z"/>
		<path class="st1" d="M304.6,108c-0.8-0.8-1.2-1.7-1.2-2.8s0.4-2.1,1.2-2.8c0.8-0.8,1.7-1.2,2.9-1.2s2.1,0.4,2.9,1.2
			c0.8,0.8,1.2,1.7,1.2,2.8s-0.4,2.1-1.2,2.8s-1.8,1.1-2.9,1.1S305.4,108.8,304.6,108z M305.6,107.1c0.5,0.5,1.2,0.8,1.9,0.8
			s1.4-0.3,1.9-0.8c0.5-0.5,0.8-1.2,0.8-1.9c0-0.8-0.3-1.4-0.8-1.9c-0.5-0.5-1.2-0.8-1.9-0.8s-1.4,0.3-1.9,0.8
			c-0.5,0.5-0.8,1.2-0.8,1.9C304.8,106,305.1,106.6,305.6,107.1z"/>
		<path class="st1" d="M312.8,109v-7.7h3c0.7,0,1.3,0.2,1.8,0.7c0.5,0.5,0.7,1,0.7,1.7c0,1-0.6,1.8-1.4,2.2l1.9,3.1h-1.6l-1.6-2.7h0
			h-1.3v2.7H312.8z M314.2,105h1.5c0.7,0,1.3-0.5,1.3-1.3c0-0.7-0.5-1.2-1.2-1.2h-1.6V105z"/>
		<path class="st1" d="M318.9,109l3.8-8l3.8,8h-1.5l-0.7-1.5h-3.3l-0.7,1.5H318.9z M321.6,106.3h2.3l-1.1-2.5L321.6,106.3z"/>
		<path class="st1" d="M328.1,109v-6.4H326v-1.2h5.5v1.2h-2.1v6.4H328.1z"/>
		<path class="st1" d="M332.7,109v-7.7h1.4v7.7H332.7z"/>
		<path class="st1" d="M338.8,109.3l-3.7-8h1.5l2.2,5l2.2-5h1.5L338.8,109.3z"/>
		<path class="st1" d="M343.6,109v-7.7h4.9v1.2H345v1.8h3.3v1.2H345v2.1h3.6v1.2H343.6z"/>
		<path class="st1" d="M354.5,109v-7.7h2.9c0.6,0,1.2,0.2,1.7,0.7c0.5,0.5,0.8,1.1,0.8,1.8c0,0.7-0.3,1.3-0.8,1.8
			c-0.5,0.5-1.1,0.7-1.7,0.7h-1.6v2.7H354.5z M355.8,105.1h1.5c0.6,0,1.2-0.5,1.2-1.2c0-0.8-0.6-1.3-1.2-1.3h-1.5V105.1z"/>
		<path class="st1" d="M361.9,108c-0.8-0.8-1.2-1.7-1.2-2.8s0.4-2.1,1.2-2.8c0.8-0.8,1.7-1.2,2.9-1.2c1.1,0,2.1,0.4,2.9,1.2
			c0.8,0.8,1.2,1.7,1.2,2.8s-0.4,2.1-1.2,2.8s-1.7,1.1-2.9,1.1C363.6,109.2,362.7,108.8,361.9,108z M362.8,107.1
			c0.5,0.5,1.2,0.8,1.9,0.8c0.8,0,1.4-0.3,1.9-0.8c0.5-0.5,0.8-1.2,0.8-1.9c0-0.8-0.3-1.4-0.8-1.9c-0.5-0.5-1.2-0.8-1.9-0.8
			c-0.8,0-1.4,0.3-1.9,0.8c-0.5,0.5-0.8,1.2-0.8,1.9C362.1,106,362.3,106.6,362.8,107.1z"/>
		<path class="st1" d="M370,101.3h1.4v4.6c0,1.3,0.6,2,1.7,2c1.1,0,1.7-0.6,1.7-2v-4.6h1.4v4.7c0,1-0.3,1.7-0.9,2.3
			s-1.3,0.8-2.2,0.8s-1.7-0.3-2.2-0.8s-0.9-1.3-0.9-2.3V101.3z"/>
		<path class="st1" d="M377.9,109v-7.7h3c0.7,0,1.3,0.2,1.8,0.7c0.5,0.5,0.7,1,0.7,1.7c0,1-0.6,1.8-1.4,2.2l1.9,3.1h-1.6l-1.6-2.7h0
			h-1.3v2.7H377.9z M379.2,105h1.5c0.7,0,1.3-0.5,1.3-1.3c0-0.7-0.5-1.2-1.2-1.2h-1.6V105z"/>
	</g>
	<g class="st0">
		<path class="st1" d="M183.8,125v-7.7h1.4v6.4h3v1.2H183.8z"/>
		<path class="st1" d="M188.7,125l3.8-8l3.8,8h-1.5l-0.7-1.5h-3.3l-0.7,1.5H188.7z M191.4,122.3h2.3l-1.1-2.5L191.4,122.3z"/>
		<path class="st1" d="M201.8,125v-6.4h-2.1v-1.2h5.5v1.2h-2.1v6.4H201.8z"/>
		<path class="st1" d="M206.3,125v-7.7h3c0.7,0,1.3,0.2,1.8,0.7c0.5,0.5,0.7,1,0.7,1.7c0,1-0.6,1.8-1.4,2.2l1.9,3.1h-1.6l-1.6-2.7h0
			h-1.3v2.7H206.3z M207.7,121h1.5c0.7,0,1.3-0.5,1.3-1.3c0-0.7-0.5-1.2-1.2-1.2h-1.6V121z"/>
		<path class="st1" d="M212.4,125l3.8-8l3.8,8h-1.5l-0.7-1.5h-3.3l-0.7,1.5H212.4z M215.1,122.3h2.3l-1.1-2.5L215.1,122.3z"/>
		<path class="st1" d="M221.1,125v-8l5.2,5.1v-4.8h1.4v8l-5.2-5.1v4.8H221.1z"/>
		<path class="st1" d="M229,122.9c0.7,0.7,1.5,1,2.5,1c0.9,0,1.5-0.4,1.5-0.9c0-0.3-0.1-0.6-0.4-0.7c-0.2-0.2-0.7-0.4-1.4-0.7
			c-1.3-0.6-2-1.2-2-2.3c0-0.6,0.2-1.1,0.7-1.5c0.5-0.4,1.1-0.6,1.8-0.6c0.7,0,1.3,0.2,1.9,0.5v1.4c-0.5-0.5-1.1-0.7-1.8-0.7
			c-0.8,0-1.2,0.3-1.2,0.8c0,0.3,0.2,0.5,0.4,0.6c0.1,0.1,0.4,0.3,0.6,0.3l0.4,0.2c0.2,0.1,0.3,0.1,0.4,0.2c0.7,0.3,1.3,0.7,1.6,1
			c0.3,0.4,0.5,0.8,0.5,1.4c0,0.6-0.2,1.1-0.7,1.6c-0.5,0.4-1.2,0.6-2,0.6c-1,0-1.8-0.3-2.6-0.8V122.9z"/>
		<path class="st1" d="M235.6,125v-7.7h1.4v7.7H235.6z"/>
		<path class="st1" d="M240.1,125v-6.4h-2.1v-1.2h5.5v1.2h-2.1v6.4H240.1z"/>
		<path class="st1" d="M244.7,125v-7.7h1.4v7.7H244.7z"/>
		<path class="st1" d="M248.6,124c-0.8-0.8-1.2-1.7-1.2-2.8s0.4-2.1,1.2-2.8c0.8-0.8,1.7-1.2,2.9-1.2s2.1,0.4,2.9,1.2
			c0.8,0.8,1.2,1.7,1.2,2.8s-0.4,2.1-1.2,2.8s-1.8,1.1-2.9,1.1S249.4,124.8,248.6,124z M249.6,123.1c0.5,0.5,1.2,0.8,1.9,0.8
			s1.4-0.3,1.9-0.8c0.5-0.5,0.8-1.2,0.8-1.9c0-0.8-0.3-1.4-0.8-1.9c-0.5-0.5-1.2-0.8-1.9-0.8s-1.4,0.3-1.9,0.8
			c-0.5,0.5-0.8,1.2-0.8,1.9C248.8,122,249,122.6,249.6,123.1z"/>
		<path class="st1" d="M256.8,125v-8l5.2,5.1v-4.8h1.4v8l-5.2-5.1v4.8H256.8z"/>
		<path class="st1" d="M268.2,125l3.8-8l3.8,8h-1.5l-0.7-1.5h-3.3l-0.7,1.5H268.2z M270.9,122.3h2.3l-1.1-2.5L270.9,122.3z"/>
		<path class="st1" d="M282.4,117.9v1.4c-0.6-0.6-1.4-0.8-2.3-0.8c-0.8,0-1.4,0.3-1.9,0.8c-0.5,0.5-0.8,1.2-0.8,1.9
			c0,0.8,0.3,1.4,0.8,1.9c0.5,0.5,1.2,0.8,1.9,0.8c0.7,0,1.3-0.2,1.8-0.7v-1.4h-2.1v-1.2h3.4v3.1c-0.7,0.9-1.9,1.4-3.1,1.4
			c-1.1,0-2.1-0.4-2.9-1.1c-0.8-0.8-1.2-1.7-1.2-2.8c0-1.1,0.4-2.1,1.2-2.8c0.8-0.8,1.8-1.1,2.9-1.1
			C281,117.2,281.8,117.4,282.4,117.9z"/>
		<path class="st1" d="M284.6,125v-7.7h3c0.7,0,1.3,0.2,1.8,0.7c0.5,0.5,0.7,1,0.7,1.7c0,1-0.6,1.8-1.4,2.2l1.9,3.1H289l-1.6-2.7h0
			H286v2.7H284.6z M286,121h1.5c0.7,0,1.3-0.5,1.3-1.3c0-0.7-0.5-1.2-1.2-1.2H286V121z"/>
		<path class="st1" d="M292.3,124c-0.8-0.8-1.2-1.7-1.2-2.8s0.4-2.1,1.2-2.8c0.8-0.8,1.7-1.2,2.9-1.2s2.1,0.4,2.9,1.2
			c0.8,0.8,1.2,1.7,1.2,2.8s-0.4,2.1-1.2,2.8s-1.8,1.1-2.9,1.1S293.1,124.8,292.3,124z M293.3,123.1c0.5,0.5,1.2,0.8,1.9,0.8
			s1.4-0.3,1.9-0.8c0.5-0.5,0.8-1.2,0.8-1.9c0-0.8-0.3-1.4-0.8-1.9c-0.5-0.5-1.2-0.8-1.9-0.8s-1.4,0.3-1.9,0.8
			c-0.5,0.5-0.8,1.2-0.8,1.9C292.5,122,292.7,122.6,293.3,123.1z"/>
		<path class="st1" d="M300.5,125v-7.7h4.9v1.2h-3.5v1.8h3.3v1.2h-3.3v2.1h3.6v1.2H300.5z M302.4,116.8l0.6-1.6h1.5l-1.1,1.6H302.4z
			"/>
		<path class="st1" d="M312.9,118v1.5c-0.7-0.7-1.5-1-2.4-1c-0.8,0-1.4,0.3-1.9,0.8c-0.5,0.5-0.8,1.2-0.8,1.9c0,0.8,0.3,1.4,0.8,1.9
			c0.5,0.5,1.2,0.8,1.9,0.8c0.9,0,1.7-0.3,2.4-1v1.5c-0.6,0.5-1.4,0.8-2.4,0.8c-1.1,0-2.1-0.4-2.9-1.1c-0.8-0.8-1.2-1.7-1.2-2.8
			c0-1.1,0.4-2.1,1.2-2.8c0.8-0.8,1.8-1.1,2.9-1.1C311.5,117.2,312.3,117.5,312.9,118z"/>
		<path class="st1" d="M315.1,124c-0.8-0.8-1.2-1.7-1.2-2.8s0.4-2.1,1.2-2.8c0.8-0.8,1.7-1.2,2.9-1.2c1.1,0,2.1,0.4,2.9,1.2
			c0.8,0.8,1.2,1.7,1.2,2.8s-0.4,2.1-1.2,2.8s-1.7,1.1-2.9,1.1C316.8,125.2,315.9,124.8,315.1,124z M316.1,123.1
			c0.5,0.5,1.2,0.8,1.9,0.8c0.8,0,1.4-0.3,1.9-0.8c0.5-0.5,0.8-1.2,0.8-1.9c0-0.8-0.3-1.4-0.8-1.9c-0.5-0.5-1.2-0.8-1.9-0.8
			c-0.8,0-1.4,0.3-1.9,0.8c-0.5,0.5-0.8,1.2-0.8,1.9C315.3,122,315.5,122.6,316.1,123.1z"/>
		<path class="st1" d="M323.3,125v-7.7h1.4v6.4h3v1.2H323.3z"/>
		<path class="st1" d="M329.4,124c-0.8-0.8-1.2-1.7-1.2-2.8s0.4-2.1,1.2-2.8c0.8-0.8,1.7-1.2,2.9-1.2c1.1,0,2.1,0.4,2.9,1.2
			c0.8,0.8,1.2,1.7,1.2,2.8s-0.4,2.1-1.2,2.8s-1.7,1.1-2.9,1.1C331.1,125.2,330.1,124.8,329.4,124z M330.3,123.1
			c0.5,0.5,1.2,0.8,1.9,0.8c0.8,0,1.4-0.3,1.9-0.8c0.5-0.5,0.8-1.2,0.8-1.9c0-0.8-0.3-1.4-0.8-1.9c-0.5-0.5-1.2-0.8-1.9-0.8
			c-0.8,0-1.4,0.3-1.9,0.8c-0.5,0.5-0.8,1.2-0.8,1.9C329.5,122,329.8,122.6,330.3,123.1z"/>
		<path class="st1" d="M343.5,117.9v1.4c-0.6-0.6-1.4-0.8-2.3-0.8c-0.8,0-1.4,0.3-1.9,0.8c-0.5,0.5-0.8,1.2-0.8,1.9
			c0,0.8,0.3,1.4,0.8,1.9c0.5,0.5,1.2,0.8,1.9,0.8c0.7,0,1.3-0.2,1.8-0.7v-1.4h-2.1v-1.2h3.4v3.1c-0.7,0.9-1.9,1.4-3.1,1.4
			c-1.1,0-2.1-0.4-2.9-1.1c-0.8-0.8-1.2-1.7-1.2-2.8c0-1.1,0.4-2.1,1.2-2.8c0.8-0.8,1.8-1.1,2.9-1.1
			C342.1,117.2,342.9,117.4,343.5,117.9z"/>
		<path class="st1" d="M345.8,125v-7.7h1.4v7.7H345.8z"/>
		<path class="st1" d="M355.4,118.3c0.8,0.8,1.2,1.7,1.2,2.8c0,1.1-0.4,2-1.1,2.7l1,1.1H355l-0.4-0.4c-0.6,0.4-1.3,0.6-2.1,0.6
			c-1.1,0-2.1-0.4-2.9-1.1c-0.8-0.8-1.2-1.7-1.2-2.8c0-1.1,0.4-2.1,1.2-2.8c0.8-0.8,1.8-1.1,2.9-1.1
			C353.7,117.2,354.7,117.6,355.4,118.3z M350.6,123.1c0.5,0.5,1.2,0.8,1.9,0.8c0.4,0,0.8-0.1,1.2-0.3l-1.7-2h1.5l1.1,1.3
			c0.4-0.5,0.6-1.1,0.6-1.8c0-0.8-0.3-1.4-0.8-1.9c-0.5-0.5-1.2-0.8-1.9-0.8c-0.8,0-1.4,0.3-1.9,0.8c-0.5,0.5-0.8,1.2-0.8,1.9
			C349.9,122,350.1,122.6,350.6,123.1z"/>
		<path class="st1" d="M357.8,117.3h1.4v4.6c0,1.3,0.6,2,1.7,2c1.1,0,1.7-0.6,1.7-2v-4.6h1.4v4.7c0,1-0.3,1.7-0.9,2.3
			s-1.3,0.8-2.2,0.8s-1.7-0.3-2.2-0.8s-0.9-1.3-0.9-2.3V117.3z"/>
		<path class="st1" d="M365.7,125v-7.7h4.9v1.2h-3.5v1.8h3.3v1.2h-3.3v2.1h3.6v1.2H365.7z"/>
	</g>
	<g id="Groupe_31" transform="translate(-41.525 -561.906)">
		<path id="Tracé_73" class="st2" d="M189.2,651.5c-11.8,0-21.3,9.6-21.3,21.3c0,11.8,9.6,21.3,21.3,21.3
			c11.8,0,21.3-9.6,21.3-21.3c0,0,0,0,0,0C210.6,661.1,201,651.5,189.2,651.5z"/>
		<g id="Groupe_28" transform="translate(175.72 664.473)">
			<g id="Groupe_27">
				<path id="Tracé_74" class="st3" d="M7.8,0l6.9,16h-1.4l-2.1-4.8H3.5L1.4,16H0L6.9,0H7.8z M4,9.9h6.7L7.4,2.2L4,9.9z"/>
				<path id="Tracé_75" class="st3" d="M18.3,1.3v5.2h5.7v1.3h-5.7v6.9h7.6V16h-8.9V0h8.7v1.3H18.3z"/>
			</g>
		</g>
		
			<linearGradient id="Tracé_76_1_" gradientUnits="userSpaceOnUse" x1="-42.0302" y1="881.7118" x2="-42.0692" y2="866.6957" gradientTransform="matrix(27.4 0 0 -1.785 1277.306 2226.9707)">
			<stop  offset="0" style="stop-color:#F4DB00"/>
			<stop  offset="8.000000e-02" style="stop-color:#CDCD07"/>
			<stop  offset="0.181" style="stop-color:#A4BE0F"/>
			<stop  offset="0.287" style="stop-color:#80B216"/>
			<stop  offset="0.399" style="stop-color:#64A71C"/>
			<stop  offset="0.518" style="stop-color:#4D9F20"/>
			<stop  offset="0.648" style="stop-color:#3E9A23"/>
			<stop  offset="0.795" style="stop-color:#349725"/>
			<stop  offset="1" style="stop-color:#329626"/>
		</linearGradient>
		<path id="Tracé_76" class="st4" d="M111.4,677h26.8c0.1-0.6,0.2-1.2,0.3-1.8h-27.4C111.2,675.9,111.3,676.4,111.4,677z"/>
		
			<linearGradient id="Tracé_77_1_" gradientUnits="userSpaceOnUse" x1="-41.7244" y1="857.2993" x2="-41.7664" y2="840.3903" gradientTransform="matrix(25.6 0 0 -1.585 1193.9738 2011.9856)">
			<stop  offset="0" style="stop-color:#F4DB00"/>
			<stop  offset="8.000000e-02" style="stop-color:#CDCD07"/>
			<stop  offset="0.181" style="stop-color:#A4BE0F"/>
			<stop  offset="0.287" style="stop-color:#80B216"/>
			<stop  offset="0.399" style="stop-color:#64A71C"/>
			<stop  offset="0.518" style="stop-color:#4D9F20"/>
			<stop  offset="0.648" style="stop-color:#3E9A23"/>
			<stop  offset="0.795" style="stop-color:#349725"/>
			<stop  offset="1" style="stop-color:#329626"/>
		</linearGradient>
		<path id="Tracé_77" class="st5" d="M112.7,680.5h24.1c0.3-0.5,0.5-1,0.8-1.6H112C112.2,679.4,112.5,680,112.7,680.5z"/>
		
			<linearGradient id="Tracé_78_1_" gradientUnits="userSpaceOnUse" x1="-40.8383" y1="859.5313" x2="-40.8873" y2="842.6223" gradientTransform="matrix(21.465 0 0 -1.585 1002.5419 2015.5276)">
			<stop  offset="0" style="stop-color:#F4DB00"/>
			<stop  offset="8.000000e-02" style="stop-color:#CDCD07"/>
			<stop  offset="0.181" style="stop-color:#A4BE0F"/>
			<stop  offset="0.287" style="stop-color:#80B216"/>
			<stop  offset="0.399" style="stop-color:#64A71C"/>
			<stop  offset="0.518" style="stop-color:#4D9F20"/>
			<stop  offset="0.648" style="stop-color:#3E9A23"/>
			<stop  offset="0.795" style="stop-color:#349725"/>
			<stop  offset="1" style="stop-color:#329626"/>
		</linearGradient>
		<path id="Tracé_78" class="st6" d="M114.1,682.4c0.5,0.6,1,1.1,1.5,1.6H134c0.5-0.5,1-1,1.5-1.6L114.1,682.4z"/>
		
			<linearGradient id="Tracé_79_1_" gradientUnits="userSpaceOnUse" x1="-37.1811" y1="861.7643" x2="-37.2641" y2="844.8553" gradientTransform="matrix(12.87 0 0 -1.585 604.6263 2019.0756)">
			<stop  offset="0" style="stop-color:#F4DB00"/>
			<stop  offset="8.000000e-02" style="stop-color:#CDCD07"/>
			<stop  offset="0.181" style="stop-color:#A4BE0F"/>
			<stop  offset="0.287" style="stop-color:#80B216"/>
			<stop  offset="0.399" style="stop-color:#64A71C"/>
			<stop  offset="0.518" style="stop-color:#4D9F20"/>
			<stop  offset="0.648" style="stop-color:#3E9A23"/>
			<stop  offset="0.795" style="stop-color:#349725"/>
			<stop  offset="1" style="stop-color:#329626"/>
		</linearGradient>
		<path id="Tracé_79" class="st7" d="M124.4,687.6h0.8c2.1-0.1,4.2-0.6,6-1.6h-12.9C120.2,687,122.3,687.5,124.4,687.6z"/>
		
			<linearGradient id="Tracé_80_1_" gradientUnits="userSpaceOnUse" x1="-42.0806" y1="1063.2515" x2="-42.0806" y2="1061.1345" gradientTransform="matrix(27.518 0 0 -13.1116 1282.7725 14596.5098)">
			<stop  offset="0" style="stop-color:#F4DB00"/>
			<stop  offset="8.000000e-02" style="stop-color:#CDCD07"/>
			<stop  offset="0.181" style="stop-color:#A4BE0F"/>
			<stop  offset="0.287" style="stop-color:#80B216"/>
			<stop  offset="0.399" style="stop-color:#64A71C"/>
			<stop  offset="0.518" style="stop-color:#4D9F20"/>
			<stop  offset="0.648" style="stop-color:#3E9A23"/>
			<stop  offset="0.795" style="stop-color:#349725"/>
			<stop  offset="1" style="stop-color:#329626"/>
		</linearGradient>
		<path id="Tracé_80" class="st8" d="M112.8,673.1c0.4-6.6,6-11.7,12.7-11.3c5.6,0.3,10.3,4.5,11.2,10c0.1,0.4,1.9,1.3,1.9,1.3
			c-0.4-7.6-6.8-13.5-14.4-13.1c-7.1,0.3-12.8,6-13.1,13.1H112.8z"/>
		
			<linearGradient id="Tracé_81_1_" gradientUnits="userSpaceOnUse" x1="-40.482" y1="1051.3279" x2="-40.482" y2="1048.3539" gradientTransform="matrix(19.952 0 0 -9.308 932.4935 10441.3379)">
			<stop  offset="0" style="stop-color:#F4DB00"/>
			<stop  offset="8.000000e-02" style="stop-color:#CDCD07"/>
			<stop  offset="0.181" style="stop-color:#A4BE0F"/>
			<stop  offset="0.287" style="stop-color:#80B216"/>
			<stop  offset="0.399" style="stop-color:#64A71C"/>
			<stop  offset="0.518" style="stop-color:#4D9F20"/>
			<stop  offset="0.648" style="stop-color:#3E9A23"/>
			<stop  offset="0.795" style="stop-color:#349725"/>
			<stop  offset="1" style="stop-color:#329626"/>
		</linearGradient>
		<path id="Tracé_81" class="st9" d="M116.6,673.1c0.4-4.5,4.3-7.9,8.9-7.6c4,0.3,7.2,3.5,7.6,7.6h1.8c-0.4-5.5-5.2-9.7-10.7-9.3
			c-5,0.3-8.9,4.3-9.3,9.3H116.6z"/>
		
			<linearGradient id="Tracé_82_1_" gradientUnits="userSpaceOnUse" x1="-36.7769" y1="1022.4604" x2="-36.7769" y2="1017.3804" gradientTransform="matrix(12.186 0 0 -5.4662 572.9592 6244.5615)">
			<stop  offset="0" style="stop-color:#F4DB00"/>
			<stop  offset="8.000000e-02" style="stop-color:#CDCD07"/>
			<stop  offset="0.181" style="stop-color:#A4BE0F"/>
			<stop  offset="0.287" style="stop-color:#80B216"/>
			<stop  offset="0.399" style="stop-color:#64A71C"/>
			<stop  offset="0.518" style="stop-color:#4D9F20"/>
			<stop  offset="0.648" style="stop-color:#3E9A23"/>
			<stop  offset="0.795" style="stop-color:#349725"/>
			<stop  offset="1" style="stop-color:#329626"/>
		</linearGradient>
		<path id="Tracé_82" class="st10" d="M120.5,673.1c0.4-2.4,2.6-4,5-3.7c1.9,0.3,3.4,1.8,3.7,3.7h1.8c-0.4-3.4-3.4-5.8-6.8-5.4
			c-2.9,0.3-5.1,2.6-5.4,5.4H120.5z"/>
		
			<linearGradient id="Tracé_83_1_" gradientUnits="userSpaceOnUse" x1="-19.5987" y1="855.2729" x2="-19.5987" y2="838.0449" gradientTransform="matrix(4.345 0 0 -1.6125 209.9517 2034.6527)">
			<stop  offset="0" style="stop-color:#F4DB00"/>
			<stop  offset="8.000000e-02" style="stop-color:#CDCD07"/>
			<stop  offset="0.181" style="stop-color:#A4BE0F"/>
			<stop  offset="0.287" style="stop-color:#80B216"/>
			<stop  offset="0.399" style="stop-color:#64A71C"/>
			<stop  offset="0.518" style="stop-color:#4D9F20"/>
			<stop  offset="0.648" style="stop-color:#3E9A23"/>
			<stop  offset="0.795" style="stop-color:#349725"/>
			<stop  offset="1" style="stop-color:#329626"/>
		</linearGradient>
		<path id="Tracé_83" class="st11" d="M127,673.1c-0.4-1.2-1.6-1.9-2.8-1.5c-0.7,0.2-1.3,0.8-1.5,1.5H127z"/>
		<g id="Groupe_29" transform="translate(70.846 659.845)">
			<path id="Tracé_84" class="st1" d="M9.3,0c3.1,0,4.8,0.7,6.2,1.9C17.1,3.3,18,5.3,18,7.4c0,1.7-0.7,3.3-1.8,4.6
				c2.6,1.4,4.2,4.1,4.1,7c0,2.2-0.9,4.4-2.5,5.9c-1.5,1.5-3.6,2.5-7.2,2.5H0V0H9.3z M5.3,10.6H9c1.1,0.1,2.2-0.2,2.9-1
				c1-1.1,1-2.8,0-3.9c-0.8-0.8-1.9-1.1-2.9-1H5.3L5.3,10.6z M10.6,22.7c1.3,0.1,2.6-0.3,3.5-1.2c1.3-1.4,1.3-3.6,0-5
				c-0.9-0.9-2.2-1.4-3.5-1.2H5.3v7.4L10.6,22.7z"/>
		</g>
		<g id="Groupe_30" transform="translate(133.668 659.718)">
			<path id="Tracé_85" class="st1" d="M3.4,20.5c1.7,1.9,4,2.9,6.5,3c2.4,0,4-1.5,4-3.5c0-3.5-5.1-4-8.8-6.1
				c-2.4-1.2-3.9-3.6-3.9-6.2C1.3,2.8,5.8,0,10.3,0c2.9-0.1,5.7,0.9,8,2.6l-3.9,3.1c-1.1-0.6-2.3-0.9-3.6-1c-2,0-4.2,0.9-4.2,3
				c0,4.4,12.7,3.1,12.7,12.3c0,4.9-4.4,8.2-9.3,8.2c-3.7-0.1-7.3-1.5-9.9-4.1L3.4,20.5z"/>
		</g>
		<path id="Tracé_86" class="st1" d="M69.2,672.9"/>
		<path id="Tracé_87" class="st1" d="M174.2,660h-28.8l2.6,5.3h9.6v22.2h5.3v-22.2h11.2V660z"/>
		<path id="Tracé_88" class="st1" d="M102.7,665.4c4.7,0,8.4,3.8,8.4,8.4c0,4.7-3.8,8.4-8.4,8.4s-8.4-3.8-8.4-8.4l0,0
			C94.3,669.1,98,665.4,102.7,665.4 M102.7,660c-7.6,0-13.8,6.2-13.8,13.8c0,7.6,6.2,13.8,13.8,13.8s13.8-6.2,13.8-13.8c0,0,0,0,0,0
			C116.5,666.2,110.3,660,102.7,660C102.7,660,102.7,660,102.7,660z"/>
	</g>
</g>
</svg>
