<svg xmlns="http://www.w3.org/2000/svg" width="68.743" height="74.762" viewBox="0 0 68.743 74.762">
  <g id="Groupe_51" data-name="Groupe 51" transform="translate(-403.548 -260.405)">
    <path id="Tracé_119" data-name="Tracé 119" d="M418.288,336.3l-10.322,3.687a3.305,3.305,0,0,1-4.417-3.113V288.439a5.648,5.648,0,0,1,3.423-5.191l11.317-4.85Z" transform="translate(0 -6.487)" fill="#329626"/>
    <path id="Tracé_120" data-name="Tracé 120" d="M440.539,336.3,454.4,341.04V284.188l-13.862-5.79Z" transform="translate(-22.252 -6.486)" fill="#6cac4d"/>
    <path id="Tracé_121" data-name="Tracé 121" d="M509.722,349.954l-34.394-.612V292.491l34.446-.291a5.647,5.647,0,0,1,5.7,5.647v46.461A5.647,5.647,0,0,1,509.722,349.954Z" transform="translate(-43.178 -14.789)" fill="#329626"/>
    <g id="Groupe_50" data-name="Groupe 50" transform="translate(435.047 260.405)">
      <circle id="Ellipse_1" data-name="Ellipse 1" cx="13.236" cy="13.236" r="13.236" transform="translate(5.263 3.564)" fill="#fff"/>
      <path id="Tracé_122" data-name="Tracé 122" d="M527.147,274.759a16.967,16.967,0,0,0-14.034,26.509l14.035,20.965,14.019-20.944a16.967,16.967,0,0,0-14.02-26.531Zm0,27.764a10.792,10.792,0,1,1,10.792-10.792A10.782,10.782,0,0,1,527.147,302.523Z" transform="translate(-510.176 -274.759)" fill="#d8006b"/>
    </g>
  </g>
</svg>
