<svg xmlns="http://www.w3.org/2000/svg" width="101.002" height="108.643" viewBox="0 0 101.002 108.643">
  <g id="Groupe_100" data-name="Groupe 100" transform="translate(-473.216 -547.322)">
    <line id="Ligne_3" data-name="Ligne 3" y1="21.886" x2="22.916" transform="translate(523.076 607.966)" fill="none" stroke="#3b8626" stroke-miterlimit="10" stroke-width="4"/>
    <path id="Tracé_123" data-name="Tracé 123" d="M495.018,617.96" fill="none" stroke="#3b8626" stroke-miterlimit="10" stroke-width="5"/>
    <path id="Tracé_124" data-name="Tracé 124" d="M487.191,623.272A13.975,13.975,0,1,0,473.216,609.3a13.975,13.975,0,0,0,13.975,13.976Zm0-23.425c2.148,0,3.866,1.675,3.866,4.3s-1.718,5.154-3.866,5.154-3.865-2.534-3.865-5.154S485.043,599.847,487.191,599.847Zm0,11.167c4.423,0,8.031,2.62,8.545,6.013H478.687C479.2,613.634,482.81,611.014,487.191,611.014Z" fill="#679d38"/>
    <path id="Tracé_131" data-name="Tracé 131" d="M523.191,575.272A13.975,13.975,0,1,0,509.216,561.3a13.975,13.975,0,0,0,13.975,13.976Zm0-23.425c2.148,0,3.866,1.675,3.866,4.3s-1.718,5.154-3.866,5.154-3.865-2.534-3.865-5.154S521.043,551.847,523.191,551.847Zm0,11.167c4.423,0,8.031,2.62,8.545,6.013H514.687C515.2,565.634,518.81,563.014,523.191,563.014Z" fill="#679d38"/>
    <line id="Ligne_4" data-name="Ligne 4" x2="10.15" y2="10.551" transform="translate(495.989 618.283)" fill="none" stroke="#679d38" stroke-miterlimit="10" stroke-width="4"/>
    <line id="Ligne_5" data-name="Ligne 5" x2="15.727" y2="16.305" transform="translate(529.989 570.283)" fill="none" stroke="#679d38" stroke-miterlimit="10" stroke-width="4"/>
    <path id="Tracé_126" data-name="Tracé 126" d="M554.495,614.813a19.722,19.722,0,1,0-19.721-19.723h0a19.721,19.721,0,0,0,19.72,19.722Zm0-33.055c3.032,0,5.456,2.364,5.456,6.061s-2.424,7.273-5.456,7.273-5.455-3.576-5.455-7.273S551.465,581.758,554.495,581.758Zm0,15.758c6.242,0,11.334,3.7,12.058,8.485H542.495C543.224,601.212,548.314,597.516,554.495,597.516Z" fill="#3b8626"/>
    <g id="Groupe_99" data-name="Groupe 99">
      <path id="Tracé_125" data-name="Tracé 125" d="M515.077,655.965a18.825,18.825,0,1,0-18.825-18.826A18.825,18.825,0,0,0,515.077,655.965Z" fill="#d8006c"/>
      <path id="Tracé_139" data-name="Tracé 139" d="M523.143,638.18a6.331,6.331,0,0,0,0-2.074l2.285-1.736a.517.517,0,0,0,.127-.676l-2.178-3.66a.546.546,0,0,0-.656-.233l-2.707,1.059a8.751,8.751,0,0,0-1.84-1.037l-.424-2.813a.476.476,0,0,0-.507-.444h-4.337a.551.551,0,0,0-.551.444l-.422,2.791a8.723,8.723,0,0,0-1.84,1.037l-2.708-1.058a.513.513,0,0,0-.656.233l-2.178,3.658a.553.553,0,0,0,.147.7l2.285,1.734a8.566,8.566,0,0,0-.063,1.037,8.189,8.189,0,0,0,.084,1.037l-2.306,1.754a.521.521,0,0,0-.126.678l2.178,3.659a.546.546,0,0,0,.657.232l2.707-1.057a8.762,8.762,0,0,0,1.84,1.036l.422,2.791a.511.511,0,0,0,.529.444h4.358a.511.511,0,0,0,.529-.444l.423-2.791a8.757,8.757,0,0,0,1.839-1.036l2.708,1.057a.512.512,0,0,0,.655-.232l2.18-3.659a.525.525,0,0,0-.128-.678Zm-8.079,4.685a5.724,5.724,0,1,1,5.885-5.722,5.806,5.806,0,0,1-5.885,5.722Z" fill="#fff"/>
    </g>
  </g>
</svg>
